<svg xmlns="http://www.w3.org/2000/svg" viewBox="0 0 663.45 439.54"><defs><style>.cls-1{fill:#f7924d;}</style></defs><g id="Layer_2" data-name="Layer 2"><g id="background_2" data-name="background 2"><path class="cls-1" d="M203.57,417.55a57.32,57.32,0,0,1-.76-10.08,21.81,21.81,0,0,1,.38-4.2c.3-1.45.68-3,2.46-3.22s2.55,1.13,3.18,2.48A47.34,47.34,0,0,1,212,412.72a70.3,70.3,0,0,1,1.89,17.94,16.23,16.23,0,0,1-.94,5.16c-1.17,3-3.51,4.32-6.61,3.47a30.9,30.9,0,0,1-14-8.73,21.45,21.45,0,0,1-4.78-7.08c-2.25-5.76,1.17-10.07,7.3-9.25A22.62,22.62,0,0,1,203.57,417.55Zm3.5-8.66c0,.38,0,.77,0,1.15q.55,7.35,1.15,14.71c.08,1,.22,2.16-1.14,2.41s-1.8-.79-2.11-1.85a8.63,8.63,0,0,1-.33-1.47,4,4,0,0,0-1.62-2.78,15.4,15.4,0,0,0-7.82-3.28,5.58,5.58,0,0,0-2.68.23,1.6,1.6,0,0,0-1.13,2.24,11.51,11.51,0,0,0,2.09,3.64,37.51,37.51,0,0,0,12,9.72c2.6,1.36,3,1.17,3.4-1.74a55.42,55.42,0,0,0-.16-13.68A44.64,44.64,0,0,0,207.07,408.89Z"/><path class="cls-1" d="M643.81,284.3c-2.54,0-4.65,0-6.75,0a14.52,14.52,0,0,1-3.88-.47,2.74,2.74,0,0,1-.8-5.13,15.08,15.08,0,0,1,2.4-1.23c2.28-.93,4.56-1.85,6.88-2.67a1.26,1.26,0,0,0,1-1.66c-.27-1.63-.44-3.28-.61-4.93a14.24,14.24,0,0,1-.09-2.26,2.27,2.27,0,0,1,1.49-2.23,2.15,2.15,0,0,1,2.42.79c1.71,1.84,3.44,3.66,5.09,5.56a1.49,1.49,0,0,0,2.06.49c1.22-.58,2.49-1.05,3.76-1.54a4.8,4.8,0,0,0,2.37-1.74,2.38,2.38,0,0,1,3.57-.24c.51.51.27,1-.13,1.45-2.31,2.75-3.14,6.23-4.61,9.39-.26.55.07.95.42,1.34a15.42,15.42,0,0,0,3.17,2.52c.79.51,1.49,1.19,1,2.24s-1.41.93-2.35.75c-4.48-.88-4.48-.87-6.08,3.29a49.51,49.51,0,0,1-3.5,7.66,9.67,9.67,0,0,1-2.35,2.92,2.52,2.52,0,0,1-4.26-1.54,13.39,13.39,0,0,1-.23-2.69C643.8,291.1,643.81,287.84,643.81,284.3Zm4.31-3.1c2.49.63,4,.59,4.37-.07,1.56-2.47,1.39-3.76-.78-6.06-4,1.18-4,1.18-3.69,5.16C648,280.52,648.08,280.82,648.12,281.2Zm0,3.24v7.64a81.81,81.81,0,0,0,3.16-7.72A8.83,8.83,0,0,0,648.07,284.44Zm-5-5.8-4.16,1.71.1.37c1.42-.07,2.81.48,4.26.17A4.61,4.61,0,0,0,643.05,278.64Zm4.42-6.05c.67-.25,1.28-.25,1.62-.7l-2-2A8.19,8.19,0,0,0,647.47,272.59Z"/><path class="cls-1" d="M549.86,38.33c-2,.41-3.82.81-5.69,1.16a14.66,14.66,0,0,1-2.39.23,2.63,2.63,0,0,1-2.61-1.45,2.74,2.74,0,0,1,.42-3,13.73,13.73,0,0,1,3.89-3.75c2.89-1.71,3.49-3.79,1.93-6.72a7.68,7.68,0,0,1-.7-2.91c-.23-2.32,1.45-3.6,3.65-2.81a19.89,19.89,0,0,1,4.81,2.78c.74.52,1.25.58,1.92-.11,1.52-1.53,3.11-3,4.67-4.49.81-.78,1-1.91,1.59-2.82.36-.57.7-1.18,1.47-1.06a1.89,1.89,0,0,0,1.62-.57,1.2,1.2,0,0,1,1.65-.16c.55.47.4,1.11.14,1.67a4,4,0,0,1-.82,1.26c-1.47,1.34-1.71,3.07-1.75,4.92,0,2.16-.18,4.32-.34,6.47a1.24,1.24,0,0,0,1,1.52,36.45,36.45,0,0,0,4,.85c1.09.19,1.92.67,2,1.91s-.79,1.76-1.84,2c-1.51.38-3,.76-4.54,1.07a1.42,1.42,0,0,0-1.31,1.49,58.86,58.86,0,0,1-1.7,9.78,13.26,13.26,0,0,1-1.69,4c-1.64,2.41-3.92,2.32-5.3-.25a55.71,55.71,0,0,1-3.31-8.88Zm2.59-4.44c2-.51,4-1,5.93-1.54,1-.29,1.46-2.46.61-3.12-1.21-.94-2.54-1.73-3.78-2.55-4.23,3.19-4.27,3.28-3,6.94C552.21,33.66,552.26,33.69,552.45,33.89Zm3.86,13.82c1.56-3.76,2-7.7,2.48-11.86l-5.6,1.55A56.12,56.12,0,0,0,556.31,47.71Zm.92-23a7.47,7.47,0,0,0,2.37,1.4,9.93,9.93,0,0,0,.22-3.74C559,23.12,558.16,23.85,557.23,24.68ZM548,32.84l-3,2.56a8,8,0,0,0,3.7-.7A4.33,4.33,0,0,0,548,32.84Zm.81-10L550,26.11c.76-.59,1.46-.95,1.86-1.75-.59-.33-1.1-.63-1.62-.91C549.84,23.27,549.48,23.13,548.76,22.82Z"/><path class="cls-1" d="M630.2,411.7A14.49,14.49,0,0,1,634,410c1.68-.33,3.24-.23,4.43,1.14a3.69,3.69,0,0,1,.3,4.26c-3.7,7.73-8.14,15-14.29,21.08-2.63,2.6-5.65,1.82-6.36-1.82-1.63-8.38-2.19-16.82-.15-25.25a10.88,10.88,0,0,1,1.3-3.2c1.83-2.92,4.9-3.31,7.36-.9a12.31,12.31,0,0,1,3.11,5.26C629.8,410.93,629.79,411.36,630.2,411.7Zm-6.83,20.09c5.11-5.29,9.69-11,12.6-17.81a1.54,1.54,0,0,0-1,.2,15.72,15.72,0,0,0-5.82,6.54,10.14,10.14,0,0,1-2.5,3.9A9.86,9.86,0,0,0,623.37,431.79Zm.58-21.72a81.22,81.22,0,0,0-.71,9.47C626.47,416.61,626,412.91,624,410.07Z"/><path class="cls-1" d="M13.08,390.77c-1.64,1.17-3.17,2.3-4.74,3.37-2.08,1.41-3.59,1.55-4.68.52s-1-2.35.22-4.56c.8-1.44,1.58-2.91,2.44-4.33a1.33,1.33,0,0,0-.28-2,40.61,40.61,0,0,0-4.83-3.83c-1-.58-1.53-1.42-1-2.52a1.93,1.93,0,0,1,2.71-.89,40.23,40.23,0,0,0,6,1.46,1.36,1.36,0,0,0,1.82-1c.89-2.29,1.76-4.59,2.56-6.92a5.9,5.9,0,0,0-.07-4.39,17,17,0,0,1-.89-2.87,1.32,1.32,0,0,1,.8-1.62,1.42,1.42,0,0,1,1.84.6,11.41,11.41,0,0,1,.85,1.76c1.94,4.91,3.51,9.94,5,15,.28.9.62,1.41,1.63,1.31a3.71,3.71,0,0,1,1,.13,2.07,2.07,0,0,1,1.87,1.7,1.8,1.8,0,0,1-1.14,2.09c-1.69.62-1.54,1.68-1.19,3.09.5,1.94.82,3.93,1.13,5.91a11.53,11.53,0,0,1,.07,2.56,2.83,2.83,0,0,1-5,2c-1.27-1.29-2.48-2.63-3.72-3.95ZM18,383.35l-.18-.46c-1.61-.29-3.22-.57-4.83-.88a.85.85,0,0,0-1.06.57,1,1,0,0,0,.3,1.32c.71.47,1,1.79,2,1.43A26.21,26.21,0,0,0,18,383.35Zm-2.7-10.62c-.65,2.13-1.2,4-1.82,6,1.28,0,2.3.63,3.54.28A53.2,53.2,0,0,0,15.29,372.73Zm4,18.93.48-.28c-.29-1.43-.58-2.87-.91-4.47a8.69,8.69,0,0,0-2.22,1.56c.67.74,1.34,1.47,2,2.23A10.85,10.85,0,0,1,19.27,391.66Z"/><path class="cls-1" d="M51.12,141.38a51.88,51.88,0,0,1,1.14-5.18A13.74,13.74,0,0,1,53.65,133c1.82-2.77,4.48-2.65,6,.3a20.41,20.41,0,0,1,1.91,7.1,34.5,34.5,0,0,1-1.06,13.3c-2,6.71-6.44,8.27-12.09,4.23a27.21,27.21,0,0,1-9.19-11.16,11.09,11.09,0,0,1-1.09-4.52c0-3.27,2.2-5.26,5.45-4.87a13.63,13.63,0,0,1,6.09,2.82C50.07,140.55,50.49,140.9,51.12,141.38Zm-.49,11.68a22.74,22.74,0,0,1,0-4.09c.54-2.7-1-4.26-2.83-5.64a9.78,9.78,0,0,0-5.46-2.15C43.93,146.16,47,149.6,50.63,153.06Zm4.93.41c2.41-3.85,3.24-12.83,1.59-17C56.31,142.34,55.43,147.86,55.56,153.47Z"/><path class="cls-1" d="M46.24,30.07c.91,2.94,1.82,5.8,2.69,8.67a14.66,14.66,0,0,1,.78,3.53,2.16,2.16,0,0,1-1.18,2.39A2.2,2.2,0,0,1,46,43.93a98.17,98.17,0,0,0-7.28-7c-.23-.2-.47-.37-.86-.67C36.45,37.5,35.1,38.74,33.72,40c-.76.66-1.54,1.3-2.36,1.88a2.15,2.15,0,0,1-2.54.2A2,2,0,0,1,28,39.5c.53-1.78,1.2-3.52,1.83-5.27.35-1,.74-2,1.17-3.09a36.54,36.54,0,0,0-5.55-3.27c-.27-.13-.56-.22-.84-.35-1.08-.49-1.76-1.28-1.37-2.5s1.44-1.56,2.67-1.28c2,.46,4,.89,6,1.39.89.22,1.35,0,1.65-.91.87-2.83,1.81-5.65,2.82-8.43.39-1.09-.18-1.83-.59-2.67-.52-1.06-1.39-2.18,0-3.21.88-.67,1.88-.07,2.86,1.66A68.76,68.76,0,0,1,44.5,25.1c.41,1.3,1,1.58,2.16,1.21.71-.24,1.41-.53,2.12-.77s1.76-.38,2.27.54a1.88,1.88,0,0,1-.54,2.44C49.33,29.61,47.75,29.62,46.24,30.07Zm-7.9-10.73-1.75,6.49a14.22,14.22,0,0,0,4.47.42A32.45,32.45,0,0,0,38.34,19.34Zm6.75,19.39c-.72-2.25-1.41-4.4-2.13-6.67a11.94,11.94,0,0,0-2.63,2.17ZM41.3,29.86l-6.09-.74C37.12,32.41,38.57,32.55,41.3,29.86ZM34,33.37a8.44,8.44,0,0,0-.87,2.78,9.65,9.65,0,0,0,2.15-1.76A2.44,2.44,0,0,0,34,33.37Z"/><path class="cls-1" d="M645.48,121.78c-1,0-1.87.07-2.71,0a2.57,2.57,0,0,1-2.48-1.64,2.41,2.41,0,0,1,1.1-2.74,13.86,13.86,0,0,1,2.59-1.81,3.08,3.08,0,0,0,1.81-3.11,26.79,26.79,0,0,1,.9-6.41c.4-1.42,1.07-2.66,2.7-2.89s2.39.81,3.13,1.94,1.35,2.08,2.18,3.37c.46-1.28.83-2.34,1.21-3.39.32-.89.78-1.7,1.88-1.66s1.45.76,1.59,1.7c0,.19.07.48.19.53,2.15.92.71,1.92,0,2.83a7.63,7.63,0,0,0-1.32,5c.07,1.35,1.69,2.12,2.9,2.83.39.23.84.33,1.25.52a1.51,1.51,0,0,1,1,1.68,1.42,1.42,0,0,1-1.46,1.26c-1.59.17-3.19.42-4.79.51-.93,0-1.27.49-1.54,1.29-.73,2.14-1.53,4.25-2.35,6.36a13.09,13.09,0,0,1-1,2,3.16,3.16,0,0,1-3.19,1.84,3.13,3.13,0,0,1-2.61-2.59,26.91,26.91,0,0,1-.85-5.5Zm7.48-8c-2.24,1-2.74,2.24-1.75,4.71A23.17,23.17,0,0,0,653,113.79Z"/><path class="cls-1" d="M448.37,412c1.11.09,1.34.85,1.46,1.68.24,1.69.51,3.38.67,5.07a1.82,1.82,0,0,0,1.46,1.81c1.2.35,2.84.35,3,2.07s-1.56,1.87-2.73,2.27c-.9.3-1.08.81-1.08,1.67a63.85,63.85,0,0,1-.22,9.48c-.18,1.25-.53,2.43-1.93,2.76s-2.1-.67-2.82-1.6c-1.74-2.26-3.29-4.66-4.86-7.13l-1.3.61c-1.28.58-2.54,1.21-3.85,1.72-2.07.83-3.44.65-4.3-.44s-.73-2.46.61-4.26q1.85-2.47,3.86-4.83a1.64,1.64,0,0,0,.25-2c-.83-1.83-1.59-3.69-2.29-5.56-.38-1-.6-2.13.44-2.9s1.9-.12,2.76.43a40.82,40.82,0,0,0,4.69,2.9l5.8-7c.37-.44.66-1.21,1.39-.81s.29,1.08.1,1.62C449.16,410.31,448.79,411,448.37,412ZM443,425.32l5.84-2.36-5.6-3C441.09,422.91,440.89,422,443,425.32Zm1.47,3.06,3.43,5.65a44.6,44.6,0,0,0,.44-7.46A14.91,14.91,0,0,0,444.48,428.38Zm3.85-9.61c-.16-1.93-.31-3.71-.49-5.94L445,417.26A15.63,15.63,0,0,0,448.33,418.77Z"/><path class="cls-1" d="M213.92,7.24c.5-.78.9-1.45,1.35-2.1A12.4,12.4,0,0,1,220,.61c2.37-1.11,4.43,0,5,2.57a8.88,8.88,0,0,1-.15,3.74,38.66,38.66,0,0,1-4.51,11.91,17.88,17.88,0,0,1-2,2.8c-2,2.26-4.24,2.32-6.14,0a35.93,35.93,0,0,1-7.41-15.45,7.92,7.92,0,0,1,0-3.59c.68-2.62,2.82-3.35,4.92-1.66a12.29,12.29,0,0,1,3.41,4.53C213.37,6,213.6,6.52,213.92,7.24ZM215.24,20c3.2-2.16,8.07-14.08,6.73-16.45a4.7,4.7,0,0,0-1.91,1.84,61.56,61.56,0,0,0-6,11.44C213.49,18.22,214.11,19.2,215.24,20ZM208.13,3.37c0,2.67,1.94,8.56,3.27,9.79A9.85,9.85,0,0,0,208.13,3.37Z"/></g></g></svg>